<svg id="Layer_1" data-name="Layer 1" xmlns="http://www.w3.org/2000/svg" viewBox="0 0 333.67 245.3"><defs><style>.cls-1,.cls-2,.cls-3,.cls-4{stroke:#000;stroke-miterlimit:10;}.cls-2{stroke-width:0.89px;}.cls-3{stroke-width:0.85px;}.cls-4{stroke-width:0.75px;}</style></defs><title>hihat</title><path class="cls-1" d="M501.5,370.5a491.81,491.81,0,0,1-162,28,491.67,491.67,0,0,1-165-28c28.71-17,53.35-23.92,71-27,28-4.88,44.79-1.35,63.18-15.67,13.51-10.53,17-22.2,27.82-22.33s14.64,11.43,28,22.09c19.52,15.52,36.83,11.15,70,17.91C451,348.86,474.3,355.58,501.5,370.5Z" transform="translate(-171.16 -198.74)"/><path class="cls-1" d="M501.5,388.5a434.19,434.19,0,0,1-163,32,434.41,434.41,0,0,1-164-32c18.16,13.74,79.36,56.47,168,55C425.64,442.12,482.76,402.69,501.5,388.5Z" transform="translate(-171.16 -198.74)"/><ellipse class="cls-1" cx="229.84" cy="81.26" rx="12.5" ry="9.5"/><path class="cls-2" d="M413.5,280.5l-9-54.67a19.6,19.6,0,0,1,12-5.55,22,22,0,0,1,14,3.17q-1-5.94-2-11.88a49.78,49.78,0,0,0-15,0,45.51,45.51,0,0,0-16,5.54q5.6,28.54,11.2,57.07" transform="translate(-171.16 -198.74)"/><ellipse class="cls-3" cx="449.64" cy="248.8" rx="8.05" ry="10.6" transform="translate(-137.5 351.79) rotate(-64.91)"/><path class="cls-4" d="M459.06,253.68l12.74-45.21a16.59,16.59,0,0,1,11.21.05,18.63,18.63,0,0,1,9.61,7.47q1.36-4.94,2.74-9.85a42.3,42.3,0,0,0-11.52-5.39,38.47,38.47,0,0,0-14.28-1.49l-11.91,47.85" transform="translate(-171.16 -198.74)"/><ellipse class="cls-3" cx="474.65" cy="256.97" rx="8.05" ry="10.6" transform="translate(-130.49 379.14) rotate(-64.91)"/><polyline class="cls-3" points="324.34 7.76 313.57 61.16 310.56 53.45 319.95 15.24"/></svg>