<svg id="Layer_1" data-name="Layer 1" xmlns="http://www.w3.org/2000/svg" viewBox="0 0 383.3 593.4"><defs><style>.cls-1{font-size:44px;fill:blue;font-family:Rubik-Bold, Rubik;font-weight:700;}</style></defs><title>lefthand</title><path d="M171.33,678s115.8-232.4,115-255.56-9.47-107.12-8.6-118.34a283.23,283.23,0,0,1-9.23-32.73c-2.9-8.39-8.71-24.19-8.87-27.9-3.39-7.58-8.06-27.74-7.74-34.19s8.71-16.61,15.64-12.1,11.61,19.19,15,38.06c3.22,6.78,10.32,22.74,12.25,29.84,2.91,7.09,8.55,16,9,19.19,3.38,1,8.87-.16,9.67-1.61-1-7.1-4.67-50.64-4.35-58.87s1.45-32.57,1.45-32.57c-1.45-6.78-4.84-41.45,9.67-45.32,15.16-2.1,17.42,9.52,16.45,22.9.65,13.71.87,18.06.2,24a227.76,227.76,0,0,1,3.51,34.67c1.29,11.45,3.87,39,3.71,44.67.81,2.91,9.68,1.94,10.16-1.13-.8-20.64,2.91-48.05,4.68-54.18-1.13-10,1.29-36.93,2.42-40.48-1.29-13.71-.65-25.8.64-31.45s5-13.38,15-13.06,19.35,16.45,15,42.41c-.48,6.45,2.19,35.64,1.1,48.55s-7.07,49.67-7.55,53.54c-.49,2.42,1,4.19,3.71,4.35s6.61,2.74,8.38-10.48c3.23-16.13,8.07-26.93,11-31.61,2.42-9.19,12.09-32.09,12.58-38.22s2.42-23.55,4.84-30,4.51-12.09,16.28-12.09,18.39,13.22,9.84,51c-1.93,10.8-5.32,34.35-8.38,39.67-2.26,9.36-10.32,41.29-15.16,49.19-.33,9.51-1.46,25.32-3.39,30.64a97.83,97.83,0,0,1,2.26,16.45c2.42,4.19,5.32,20,5.32,22.58,1.61,2.74,3.06,11.45,10.64,5.16s26.84-25.4,42.26-32.1c24.39-10.58,41.7-6.86,43.7,13.07,0,5.78-20,16.67-26.3,19.23-19.4,8.6-24.86,21.31-38.7,31.76-19.7,26.82-54.34,47.87-71.6,52.87-10,4.35-12.41,6.61-15.48,14.67S318.28,678,318.28,678Z" transform="translate(-171.33 -84.6)"/><text class="cls-1" transform="translate(52.61 112.02)">5</text><text class="cls-1" transform="translate(116.9 57.4)">4</text><text class="cls-1" transform="translate(194.9 37.4)">3</text><text class="cls-1" transform="translate(282.9 70.4)">2</text><text class="cls-1" transform="translate(361.13 257.62)">1</text></svg>