<svg id="Layer_1" data-name="Layer 1" xmlns="http://www.w3.org/2000/svg" viewBox="0 0 388.54 593.98"><defs><style>.cls-1{font-size:44px;fill:red;font-family:Rubik-Bold, Rubik;font-weight:700;}</style></defs><title>righthand</title><path d="M508.82,715S393,482.6,393.82,459.44s9.47-107.12,8.6-118.34a283.23,283.23,0,0,0,9.23-32.73c2.91-8.39,8.71-24.19,8.87-27.9,3.39-7.58,8.06-27.74,7.74-34.19s-8.7-16.61-15.64-12.1-11.61,19.2-15,38.06C394.4,279,387.3,295,385.37,302.08c-2.91,7.09-8.55,16-9,19.19-3.39,1-8.87-.16-9.68-1.61,1-7.1,4.68-50.64,4.35-58.87s-1.45-32.57-1.45-32.57c1.45-6.78,4.84-41.45-9.67-45.32-15.16-2.1-17.42,9.52-16.45,22.9-.65,13.71-.87,18.06-.2,24a227.76,227.76,0,0,0-3.51,34.67c-1.29,11.45-3.87,39-3.71,44.67-.81,2.91-9.68,1.94-10.16-1.13.8-20.64-2.9-48.05-4.68-54.18,1.13-10-1.29-36.93-2.42-40.48,1.29-13.71.65-25.8-.64-31.45s-5-13.38-15-13.06-19.35,16.45-15,42.41c.49,6.45-2.19,35.64-1.09,48.55s7.06,49.67,7.54,53.54c.49,2.42-1,4.19-3.71,4.35s-6.61,2.74-8.38-10.48c-3.23-16.13-8.07-26.93-11-31.61-2.42-9.19-12.09-32.09-12.58-38.22s-2.42-23.55-4.84-30-4.51-12.09-16.28-12.09-18.39,13.22-9.84,51c1.93,10.8,5.32,34.35,8.39,39.67,2.25,9.36,10.32,41.29,15.15,49.19.33,9.51,1.46,25.32,3.39,30.64a97.83,97.83,0,0,0-2.26,16.45c-2.42,4.19-5.32,20-5.32,22.58-1.61,2.74-3.06,11.45-10.64,5.16s-26.84-25.4-42.25-32.1c-24.4-10.58-41.71-6.86-43.71,13.07,0,5.78,20,16.67,26.3,19.23,19.4,8.6,24.86,21.31,38.7,31.76,19.7,26.82,54.34,47.87,71.6,52.87,10,4.35,12.41,6.61,15.48,14.67S361.87,715,361.87,715Z" transform="translate(-120.29 -121.02)"/><text class="cls-1" transform="translate(304.28 107.22)">5</text><text class="cls-1" transform="translate(241.11 54.4)">4</text><text class="cls-1" transform="translate(160.3 37.4)">3</text><text class="cls-1" transform="matrix(1, -0.01, 0.01, 1, 79.91, 68.52)">2</text><text class="cls-1" transform="translate(0 259.4)">1</text></svg>