<svg id="Layer_1" data-name="Layer 1" xmlns="http://www.w3.org/2000/svg" xmlns:xlink="http://www.w3.org/1999/xlink" viewBox="0 0 400.63 359.13"><defs><style>.cls-1,.cls-4{fill:#a67c52;}.cls-1,.cls-2,.cls-4{stroke:#754c24;stroke-miterlimit:10;}.cls-1{stroke-width:1.11px;}.cls-2{fill:#754c24;stroke-width:1.27px;}.cls-3{fill:red;}</style><symbol id="ear" data-name="ear" viewBox="0 0 67.25 66.16"><ellipse class="cls-1" cx="33.62" cy="33.08" rx="33.08" ry="32.5" transform="translate(-5.4 6.59) rotate(-10.36)"/><path class="cls-2" d="M35.76,55.86c-12.84,1-24.13-8.23-25.61-20.33C8.79,24.4,16.05,13.44,27.41,10.22Z"/></symbol><symbol id="eyebrow" data-name="eyebrow" viewBox="0 0 66.79 37.7"><polygon points="18.39 0 66.79 25.14 58.85 37.7 0 15.23 18.39 0"/></symbol></defs><title>bearhead</title><path id="Bottom_Wave" data-name="Bottom Wave" class="cls-3" d="M414.54,380.82l-1.3,1.24a140.32,140.32,0,0,0,61.18-27.74,137,137,0,0,0,25.66-26.87c2.27,3.74,10.77,18.63,4.81,30.79-3.67,7.47-11.19,10.68-25.05,15.14a440.45,440.45,0,0,1-57.49,14.27" transform="translate(-131.27 -225.08)"/><path id="Top_Wave" data-name="Top Wave" class="cls-3" d="M406.24,369c2.39-9.86,7.27-24.11,18.31-37.32,15.63-18.68,32.71-22.26,48.43-32.3,16-10.24,35.56-30.37,47.61-74.25,4.34,6.13,11.59,18.34,11.3,34-.55,29.89-28.17,49.55-35,54.42-21,14.93-32.14,10-52.24,24.83-16.32,12-25.41,27.37-30.44,38" transform="translate(-131.27 -225.08)"/><g id="Head"><use width="67.25" height="66.16" transform="matrix(-1, 0.03, 0.03, 1, 336.67, 199.69)" xlink:href="#ear"/><use width="67.25" height="66.16" transform="translate(0 203.43)" xlink:href="#ear"/><ellipse class="cls-4" cx="169.61" cy="222.74" rx="128.45" ry="135.89"/><path class="cls-3" d="M189.08,380.88a199.07,199.07,0,0,1,66-15.37c29.12-1.56,43.65,4.4,78.67,5.67a348.19,348.19,0,0,0,70-4.64,36.54,36.54,0,0,1,16.5,14c8.22,13.2,4.62,27,4,29.42a557.45,557.45,0,0,0-170.06-.09,550.74,550.74,0,0,0-81.81,19.16,48.31,48.31,0,0,1,16.65-48.2Z" transform="translate(-131.27 -225.08)"/><path d="M323.56,493.6c-.75-1.13-8.56-12.38-22.76-12.81a28.71,28.71,0,0,0-25.62,14.58,25.76,25.76,0,0,0,48.38-1.77Z" transform="translate(-131.27 -225.08)"/><polygon points="162.89 285.87 172.79 285.87 174.98 309.26 163.79 309.26 162.89 285.87"/><path d="M253.69,522.64a103.67,103.67,0,0,0,89.68-1.38v9.54a101.2,101.2,0,0,1-88.72,0Z" transform="translate(-131.27 -225.08)"/><ellipse cx="244.24" cy="445.32" rx="17.37" ry="27.16" transform="translate(-174.45 -198.51) rotate(-5.72)"/><ellipse cx="347.11" cy="443.31" rx="27.16" ry="17.37" transform="translate(-255.92 525.54) rotate(-85.02)"/><use width="66.79" height="37.7" transform="translate(74.75 153.24)" xlink:href="#eyebrow"/><use width="66.79" height="37.7" transform="matrix(-0.95, -0.3, -0.3, 0.95, 258.38, 158.32)" xlink:href="#eyebrow"/></g></svg>