<svg id="Layer_1" data-name="Layer 1" xmlns="http://www.w3.org/2000/svg" viewBox="0 0 2400 693.02"><defs><style>.cls-1,.cls-3{fill:#999;}.cls-2{fill:none;stroke-width:3.74px;}.cls-2,.cls-3{stroke:#999;stroke-miterlimit:10;}.cls-3{stroke-width:0.56px;}</style></defs><title>city1</title><rect class="cls-1" x="347.12" y="425.42" width="113.45" height="267.15"/><rect class="cls-1" x="535.71" y="377.05" width="134.49" height="315.52"/><rect class="cls-1" x="460.58" y="534.81" width="75.13" height="157.76"/><rect class="cls-1" x="944.44" y="280.31" width="123.97" height="412.26"/><rect class="cls-1" x="1166.84" y="201.43" width="105.19" height="491.14"/><rect class="cls-1" x="1570.31" y="201.43" width="162.29" height="491.14"/><rect class="cls-1" y="377.05" width="139.34" height="315.52"/><polygon class="cls-1" points="1289.31 203.66 1149.56 203.66 1166.84 168.69 1272.03 168.69 1289.31 203.66"/><polygon class="cls-1" points="1252.49 168.69 1187.13 168.69 1202.15 84.6 1235.96 84.6 1252.49 168.69"/><rect class="cls-1" x="1192.39" y="76.41" width="54.1" height="15.63"/><ellipse class="cls-1" cx="1219.43" cy="78.65" rx="15.03" ry="14.88"/><ellipse class="cls-2" cx="1187.13" cy="168.69" rx="12.77" ry="12.65"/><ellipse class="cls-2" cx="1252.12" cy="169.06" rx="12.77" ry="12.65"/><polygon class="cls-3" points="1212.3 68.6 1220.56 2.37 1228.08 68.6 1212.3 68.6"/><path class="cls-1" d="M176.57,713.88V1080H347.12V713.88Zm44.7,354.59H195v-49.12h26.3Zm42.08,0h-26.3v-49.12h26.3Z" transform="translate(0 -387.43)"/><path class="cls-1" d="M670.2,877.59V1080H917.39V877.59Zm182.95,68.84H826.86V897.31h26.29Zm42.08,0h-26.3V897.31h26.3Z" transform="translate(0 -387.43)"/><path class="cls-1" d="M1311.85,780.11V1080h258.46V780.11Zm53,288.36h-26.3v-49.12h26.3Zm42.08,0h-26.3v-49.12h26.3Z" transform="translate(0 -387.43)"/><rect class="cls-1" x="2028.62" y="280.76" width="123.97" height="412.26"/><path class="cls-1" d="M1781.64,878.05v202.4h247.19V878.05Zm182.95,68.83h-26.3V897.77h26.3Zm42.08,0h-26.3V897.77h26.3Z" transform="translate(0 -387.43)"/><rect class="cls-1" x="2165.76" y="417.57" width="234.24" height="275"/><ellipse class="cls-1" cx="2282.88" cy="417.07" rx="117.12" ry="87.5"/><ellipse class="cls-1" cx="2282.88" cy="330.07" rx="38.37" ry="36.5"/><polyline class="cls-1" points="2269.9 295.71 2282.88 280.57 2295.85 295.71"/></svg>