<svg id="Layer_1" data-name="Layer 1" xmlns="http://www.w3.org/2000/svg" viewBox="0 0 2375.64 794.15"><defs><style>.cls-1{fill:#828181;}</style></defs><title>city2</title><rect class="cls-1" x="710.05" y="444.86" width="112.37" height="348.7"/><rect class="cls-1" x="896.83" y="381.73" width="133.2" height="411.84"/><rect class="cls-1" x="822.41" y="587.64" width="74.41" height="205.92"/><rect class="cls-1" x="1301.64" y="255.45" width="122.78" height="538.11"/><rect class="cls-1" x="1521.91" y="152.5" width="104.18" height="641.06"/><rect class="cls-1" x="1921.52" y="152.5" width="160.74" height="641.06"/><rect class="cls-1" x="403.53" y="380.4" width="138" height="411.84"/><polygon class="cls-1" points="1643.21 155.41 1504.8 155.41 1521.91 109.76 1626.09 109.76 1643.21 155.41"/><polygon class="cls-1" points="1606.74 109.76 1542 109.76 1556.89 0 1590.37 0 1606.74 109.76"/><rect class="cls-1" x="1547.21" y="11.32" width="53.58" height="20.4"/><path class="cls-1" d="M541.6,603v477.88H710.52V603Zm44.28,462.83h-26v-64.11h26Zm41.67,0h-26v-64.11h26Z" transform="translate(-0.47 -287.33)"/><path class="cls-1" d="M1030.5,816.69v264.2h244.83V816.69Zm181.2,89.85h-26V842.43h26Zm41.68,0h-26.05V842.43h26.05Z" transform="translate(-0.47 -287.33)"/><path class="cls-1" d="M1666,689.45v391.44h256V689.45Zm52.47,376.39h-26v-64.11h26Zm41.67,0h-26.05v-64.11h26.05Z" transform="translate(-0.47 -287.33)"/><path class="cls-1" d="M2131.29,817.29v264.19h244.83V817.29Zm181.2,89.84h-26V843h26Zm41.67,0h-26V843h26Z" transform="translate(-0.47 -287.33)"/><rect class="cls-1" y="255.36" width="122.78" height="538.11"/><rect class="cls-1" x="135.82" y="433.92" width="232" height="358.95"/><ellipse class="cls-1" cx="251.82" cy="433.27" rx="116" ry="114.21"/><ellipse class="cls-1" cx="251.82" cy="319.71" rx="38" ry="47.64"/><polyline class="cls-1" points="238.97 274.87 251.82 255.1 264.67 274.87"/></svg>