<svg id="Layer_1" data-name="Layer 1" xmlns="http://www.w3.org/2000/svg" viewBox="0 0 2399.51 980.9"><defs><style>.cls-1{fill:#666;}</style></defs><title>city3</title><rect class="cls-1" x="74.48" y="493.3" width="133.32" height="486.9"/><rect class="cls-1" y="736.75" width="74.48" height="243.45"/><rect class="cls-1" x="479.67" y="344.01" width="122.9" height="636.18"/><path class="cls-1" d="M804.9,1082.19H700.62V168c7.77-23.35,30-38.84,54.07-38a55.26,55.26,0,0,1,50.21,38Z" transform="translate(-0.49 -102)"/><rect class="cls-1" x="1100.11" y="222.29" width="160.88" height="757.91"/><path class="cls-1" d="M208.29,769.85v312.34H453.34V769.85ZM389.66,876.07H363.59V800.28h26.07Zm41.71,0H405.3V800.28h26.07Z" transform="translate(-0.49 -102)"/><path class="cls-1" d="M844.38,619.41v462.78H1100.6V619.41Zm52.51,445H870.82V988.6h26.07Zm41.71,0H912.53V988.6H938.6Z" transform="translate(-0.49 -102)"/><path class="cls-1" d="M1310.09,770.55V1082.9h245V770.55Zm181.36,106.22h-26.07V801h26.07Zm41.71,0h-26.07V801h26.07Z" transform="translate(-0.49 -102)"/><rect class="cls-1" x="2287.04" y="568.22" width="112.47" height="412.25"/><rect class="cls-1" x="1980.24" y="492.01" width="138.13" height="486.9"/><path class="cls-1" d="M2118.46,517.49v565h169.07v-565Zm44.31,547.18H2136.7V988.88h26.07Zm41.71,0h-26.07V988.88h26.07Z" transform="translate(-0.49 -102)"/><rect class="cls-1" x="1548.32" y="344.18" width="122.9" height="636.18"/><rect class="cls-1" x="1712.29" y="555.29" width="232.21" height="424.37"/><ellipse class="cls-1" cx="1828.4" cy="554.51" rx="116.11" ry="135.03"/><ellipse class="cls-1" cx="1828.4" cy="420.26" rx="38.03" ry="56.33"/><polyline class="cls-1" points="1815.54 367.24 1828.4 343.87 1841.26 367.24"/><circle class="cls-1" cx="752.01" cy="92.5" r="92.5"/></svg>