<svg id="Layer_1" data-name="Layer 1" xmlns="http://www.w3.org/2000/svg" xmlns:xlink="http://www.w3.org/1999/xlink" viewBox="0 0 488.04 402.77"><defs><style>.cls-1,.cls-4{fill:#e6e6e6;}.cls-2,.cls-3,.cls-6{fill:#ed1e79;stroke:#fff;}.cls-2,.cls-3,.cls-4,.cls-6,.cls-7{stroke-miterlimit:10;}.cls-2{stroke-width:0.76px;}.cls-3{stroke-width:0.78px;}.cls-4{stroke:#000;stroke-width:0.89px;}.cls-5,.cls-7{fill:#fff;}.cls-7{stroke:#ccc;stroke-width:1.05px;}</style><symbol id="sunglass_frame" data-name="sunglass frame" viewBox="0 0 77.88 59.86"><path d="M71.31,56,10.08,59.84a7,7,0,0,1-7.43-6.55L0,11.29A7,7,0,0,1,6.57,3.86L67.8,0a7,7,0,0,1,7.43,6.56l2.64,42A7,7,0,0,1,71.31,56Z"/></symbol></defs><title>rabbithead</title><path class="cls-1" d="M394.11,315.93c11.14-40.17,22.13-71.17,30.36-92.5,3.85-10,8.64-21.82,20.27-32.45,13.75-12.56,28.67-15.75,45.54-20.23a661.71,661.71,0,0,0,77.48-25.92c-11.68,21.64-25,44.38-40.08,67.85-12.14,18.86-24.35,36.45-36.4,52.81-4,4.88-8.35,9.83-13.22,14.77-23.18,23.48-48.65,37.94-69.64,47Z" transform="translate(-79.72 -144.83)"/><path class="cls-2" d="M410,309c8.26-29.79,17.85-64.69,24-80.51,2.85-7.38,6.4-16.17,15-24.06,10.19-9.31,21.26-11.68,33.77-15a492.65,492.65,0,0,0,57.46-19.22c-8.66,16.05-18.51,32.91-29.72,50.32-9,14-18.06,27-27,39.16-2.94,3.62-6.19,7.29-9.81,11C456.5,288,413.53,311.75,410,309Z" transform="translate(-79.72 -144.83)"/><path class="cls-1" d="M277.54,317.42a949.57,949.57,0,0,0-39-90c-4.82-9.64-10.78-21.11-24-30.83-15.6-11.49-31.79-13.54-50.15-16.73a748,748,0,0,1-84.7-20c14,20.71,29.83,42.39,47.66,64.66C141.7,242.43,156,259.06,170,274.46c4.58,4.57,9.63,9.18,15.19,13.74C211.68,309.86,240,322.36,263,329.78Z" transform="translate(-79.72 -144.83)"/><path class="cls-3" d="M260.06,311.67c-10.93-29.08-23.65-63.17-31.3-78.49-3.57-7.14-8-15.65-17.78-22.86-11.56-8.52-23.57-10-37.18-12.41A554.84,554.84,0,0,1,111,183.08c10.4,15.36,22.12,31.43,35.34,47.95,10.62,13.26,21.23,25.59,31.64,37,3.4,3.39,7.15,6.8,11.27,10.18C208.84,294.3,256.48,314.73,260.06,311.67Z" transform="translate(-79.72 -144.83)"/><circle class="cls-4" cx="248.47" cy="268.21" r="121.03"/><use width="77.88" height="59.86" transform="matrix(1, 0, 0, 0.99, 157.06, 241.19)" xlink:href="#sunglass_frame"/><use width="77.88" height="59.86" transform="matrix(-1, 0.05, 0.05, 0.98, 333.37, 240.16)" xlink:href="#sunglass_frame"/><rect x="233.39" y="268.95" width="26.11" height="5.28"/><polygon points="157.77 258.15 126.15 258.31 126.42 267.67 159.62 264.52 157.77 258.15"/><polygon points="332.76 260.27 369.96 265.52 368.56 275.06 330.32 267.23 332.76 260.27"/><path class="cls-5" d="M215.89,458.23c33.22,11.22,55.42,7.75,69.84,2.08,16.79-6.6,23-16.14,39.86-16.81,18.22-.71,26.17,9.77,44.94,16.41C385,465,407,468.28,438.89,458.23a74.43,74.43,0,0,1-8.44,35.71,62.52,62.52,0,0,1-13.82,18.22c-10.79,9.58-20.76,10.71-36.84,15.46-38,11.22-35.4,20.61-52.66,20-8.76-.33-5.18-2.59-48-19.24-12.53-4.87-19.06-7.1-28.7-12.82-9.8-5.81-18.18-10.78-24.8-20.12C216.11,481.94,215.43,466.81,215.89,458.23Z" transform="translate(-79.72 -144.83)"/><path class="cls-6" d="M335.59,458.53a9,9,0,0,1-16.46,0,33.07,33.07,0,0,1,16.46,0Z" transform="translate(-79.72 -144.83)"/><path d="M295.41,490.94a15.78,15.78,0,0,0,4.71-10.86,1.51,1.51,0,0,0-1.5-1.5,1.53,1.53,0,0,0-1.5,1.5,13,13,0,0,1-1,4.63,13.85,13.85,0,0,1-1.23,2.23c-.12.17-.24.35-.37.52l-.09.12c.05-.07.05-.07,0,0l-.2.25c-.3.34-.61.67-.93,1a1.5,1.5,0,0,0,2.12,2.12Z" transform="translate(-79.72 -144.83)"/><path d="M298.69,484.75a109.15,109.15,0,0,0,28.15,8.12c4.76.69,9.28.89,13.69-1.34,3.79-1.91,6.88-5,9.82-8,1.36-1.37-.76-3.5-2.12-2.12-2.78,2.83-5.64,5.73-9.22,7.53-4.05,2.05-8.41,1.52-12.74.83a105.79,105.79,0,0,1-26.06-7.62c-1.76-.76-3.28,1.82-1.52,2.6Z" transform="translate(-79.72 -144.83)"/><path d="M347.9,481.31a27.64,27.64,0,0,0,6.15,6,1.51,1.51,0,0,0,2.06-.54,1.54,1.54,0,0,0-.54-2c-.24-.16-.46-.33-.69-.49.42.3,0,0-.12-.1l-.37-.31c-.53-.44-1-.91-1.53-1.39s-1-1-1.43-1.49c-.2-.22-.4-.46-.59-.69l-.15-.17c0-.05-.21-.27,0-.05l0,0-.14-.19a1.59,1.59,0,0,0-.9-.69,1.49,1.49,0,0,0-1.15.15,1.52,1.52,0,0,0-.54,2.05Z" transform="translate(-79.72 -144.83)"/><path d="M294.85,489.77a39.53,39.53,0,0,1,7.49,18.16c.24,1.75.4,3.51.68,5.24a2.94,2.94,0,0,0,3.1,2.82c3.58.15,7.22-.1,10.8-.21,7.23-.21,14.56-.45,21.75.64,1.64.25,3.26.69,4.9.93a3.12,3.12,0,0,0,3.6-2c1.22-3,1.22-6.58,1.14-9.75-.11-3.68-.54-7.46.28-11.1a17.13,17.13,0,0,1,1.88-4.78c.64-1.12,1.48-2.52,2.75-3,1.87-.71,1.06-3.73-.84-3-2.42.91-3.95,3.07-5.09,5.31a21.6,21.6,0,0,0-2.27,9c-.16,3.2.21,6.4.18,9.61a24.8,24.8,0,0,1-.44,4.71,15.26,15.26,0,0,1-.42,2c-.13.07-.5-.07-.64-.09-.62-.11-1.24-.28-1.86-.4A97.54,97.54,0,0,0,321,512.54c-3.52.08-7,.22-10.57.28l-2.4,0h-1.19c-.16,0-1.17-.12-.66.3-.33-.28-.29-1.85-.35-2.31-.13-1-.24-2-.38-3.06a42,42,0,0,0-7.9-19.6c-1.18-1.6-3.9,0-2.7,1.58Z" transform="translate(-79.72 -144.83)"/><path d="M302.55,501.79c2.64-.46,5.29.18,7.86.78s5.27,1.15,7.95,1.51a75.3,75.3,0,0,0,16.16.46c1.91-.16,1.93-3.16,0-3a73.13,73.13,0,0,1-16.79-.55c-5.26-.81-10.61-3-16-2.09-1.9.33-1.09,3.22.8,2.89Z" transform="translate(-79.72 -144.83)"/><path class="cls-7" d="M297.92,368c-5.73-13.49-21.78-20.78-37.35-17s-26.1,17.38-24.8,31.82c.23-.75,6-18.77,25.73-24.06C274.7,355.18,288.83,358.77,297.92,368Z" transform="translate(-79.72 -144.83)"/><path class="cls-7" d="M347.46,360.93c5.72-13.49,21.78-20.77,37.35-17s26.1,17.38,24.79,31.83c-.22-.75-6-18.77-25.72-24.07C370.68,348.15,356.54,351.74,347.46,360.93Z" transform="translate(-79.72 -144.83)"/><path class="cls-1" d="M315.75,304.86A21.56,21.56,0,0,1,319.53,279a13.14,13.14,0,0,0,1.75,9.34,63.36,63.36,0,0,1,21.65-15.8c1.11-.49,3-.46,2.91.74a8.37,8.37,0,0,0-4.76,7.08c10.09.22,21.19.84,28.48,7.82a42.72,42.72,0,0,0-16.09,4.27,8.9,8.9,0,0,1,2.83,4.26c-2.77-.54-5.61.1-8.36.73l-30.73,7.05" transform="translate(-79.72 -144.83)"/><path class="cls-5" d="M216.48,458.93c-4.86-1-15,2.19-16.66,6.87a9.94,9.94,0,0,1,12.83,1.55,20.85,20.85,0,0,0-9,12,14.73,14.73,0,0,1,14.47-1.84,20.29,20.29,0,0,1-11.65,10.19,25.15,25.15,0,0,0,17.77,5.57c-1.8,4.44-6,5.54-5.54,10.3,5.39-3.09,15.43-.46,21.56.61" transform="translate(-79.72 -144.83)"/><path class="cls-5" d="M216.68,458.21c-3.38-.64-7.08.19-10.23,1.42-2.9,1.14-6.17,2.89-7.36,6a.75.75,0,0,0,1.1.84,9.26,9.26,0,0,1,11.93,1.44l.15-1.18A21.92,21.92,0,0,0,203,479.14c-.17.58.56,1.26,1.1.85A14.15,14.15,0,0,1,218,478.23l-.45-1.11A19.76,19.76,0,0,1,206.3,487c-.48.16-.8.87-.33,1.25a26.14,26.14,0,0,0,18.3,5.79l-.65-1.12c-1.66,3.87-6,6-5.64,10.67a.76.76,0,0,0,1.13.65c3.08-1.69,6.93-1.49,10.31-1.13,3.59.38,7.12,1.19,10.67,1.82.94.17,1.35-1.28.4-1.45-3.81-.67-7.59-1.53-11.44-1.91-3.56-.35-7.47-.4-10.7,1.37l1.13.65c-.34-4.18,3.92-6.39,5.43-9.92.21-.47,0-1.17-.64-1.13A24.65,24.65,0,0,1,207,487.16l-.33,1.25a21.29,21.29,0,0,0,12.1-10.53.77.77,0,0,0-.45-1.1,15.54,15.54,0,0,0-15,1.91l1.11.85A20.35,20.35,0,0,1,213,468a.75.75,0,0,0,.15-1.17,10.74,10.74,0,0,0-13.74-1.67l1.1.85c1-2.69,4.4-4.24,6.91-5.15,2.73-1,5.93-1.74,8.83-1.19.94.18,1.35-1.27.4-1.45Z" transform="translate(-79.72 -144.83)"/><path class="cls-5" d="M438.31,459.23c4.86-1,15,2.19,16.67,6.86a10,10,0,0,0-12.84,1.55,20.85,20.85,0,0,1,9,12,14.71,14.71,0,0,0-14.47-1.83A20.31,20.31,0,0,0,448.29,488a25.14,25.14,0,0,1-17.77,5.58c1.8,4.43,6.05,5.54,5.54,10.29-5.39-3.09-15.43-.45-21.56.62" transform="translate(-79.72 -144.83)"/><path class="cls-5" d="M438.51,460c2.9-.55,6.1.21,8.83,1.19,2.51.91,5.87,2.46,6.91,5.15l1.1-.85a10.74,10.74,0,0,0-13.74,1.67.77.77,0,0,0,.15,1.18,20.33,20.33,0,0,1,8.62,11.54l1.11-.84a15.52,15.52,0,0,0-15.05-1.92.77.77,0,0,0-.45,1.1,21.29,21.29,0,0,0,12.1,10.53l-.33-1.25a24.66,24.66,0,0,1-17.24,5.36c-.63-.05-.85.65-.64,1.13,1.51,3.53,5.77,5.74,5.43,9.91l1.13-.64c-3.23-1.78-7.14-1.73-10.7-1.38-3.85.38-7.63,1.24-11.44,1.91-.95.17-.54,1.62.4,1.45,3.55-.63,7.08-1.44,10.67-1.82,3.38-.36,7.23-.56,10.31,1.13a.76.76,0,0,0,1.13-.65c.38-4.65-4-6.8-5.64-10.67l-.65,1.13a26.2,26.2,0,0,0,18.3-5.8c.47-.38.15-1.09-.33-1.25a19.81,19.81,0,0,1-11.2-9.84l-.45,1.1a14.15,14.15,0,0,1,13.89,1.76c.54.41,1.27-.26,1.1-.84A21.91,21.91,0,0,0,442.52,467l.15,1.18a9.25,9.25,0,0,1,11.93-1.43.76.76,0,0,0,1.1-.85c-1.19-3.08-4.46-4.83-7.36-6-3.15-1.23-6.85-2.06-10.23-1.42-.95.18-.55,1.63.4,1.45Z" transform="translate(-79.72 -144.83)"/></svg>